<?xml version="1.0" encoding="UTF-8"?>
<svg id="Layer_1" data-name="Layer 1" xmlns="http://www.w3.org/2000/svg" viewBox="0 0 16 16">
  <defs>
    <style>
      .cls-1 {
        fill: none;
        stroke: #000;
        stroke-miterlimit: 10;
        stroke-width: .25px;
      }
    </style>
  </defs>
  <path class="cls-1" d="M8.23,2.16c-.05-.13-.2-.19-.32-.14-.04.02-.07.04-.1.07l-.04.07-1.4,3.52c-.11.27-.36.45-.65.47l-3.78.24c-.14,0-.24.13-.23.27,0,.07.04.13.09.18l2.91,2.42c.22.19.32.48.25.76l-.93,3.67c-.03.13.05.27.18.3.07.02.14,0,.19-.03l3.2-2.02.09-.05c.23-.1.49-.08.71.05l3.2,2.02.07.03c.13.03.27-.05.3-.18,0-.04,0-.08,0-.12l-.94-3.67c-.07-.28.03-.58.25-.76l2.91-2.42.05-.06c.07-.12.04-.27-.08-.35-.01,0-.02-.01-.03-.02l-.08-.02-3.78-.25c-.29-.02-.54-.2-.65-.47l-1.4-3.52Z"/>
</svg>